<?xml version="1.0" standalone="no"?>
<!DOCTYPE svg PUBLIC "-//W3C//DTD SVG 20010904//EN"
 "http://www.w3.org/TR/2001/REC-SVG-20010904/DTD/svg10.dtd">
<svg version="1.0" xmlns="http://www.w3.org/2000/svg"
 width="2193.000000pt" height="1400.000000pt" viewBox="0 0 2193.000000 1400.000000"
 preserveAspectRatio="xMidYMid meet">

<g transform="translate(0.000000,1400.000000) scale(0.100000,-0.100000)"
fill="#000000" stroke="none">
<path d="M0 7000 l0 -7000 3008 1 c2599 0 2998 2 2943 15 -199 43 -325 185
-351 394 -13 109 -13 1220 0 1315 6 43 23 97 45 141 168 344 694 349 860 9 40
-82 55 -151 55 -262 l0 -103 -150 0 -150 0 0 83 c0 97 -19 147 -73 194 -43 37
-104 50 -164 34 -59 -16 -89 -45 -110 -104 -17 -48 -18 -97 -18 -662 l0 -610
25 -49 c32 -63 65 -88 128 -94 87 -8 156 27 192 99 15 29 20 58 20 124 l0 85
150 0 150 0 0 -105 c0 -164 -41 -265 -148 -367 -64 -61 -141 -105 -217 -124
-41 -10 194 -12 1245 -12 804 0 1274 4 1240 9 -77 13 -191 69 -249 124 -104
98 -149 201 -158 367 l-6 108 152 0 151 0 0 -67 c0 -91 14 -137 57 -184 39
-43 82 -59 158 -59 76 0 119 16 158 59 44 49 57 106 57 260 0 136 -16 204 -57
243 -36 33 -42 36 -238 118 -176 73 -258 121 -306 179 -72 87 -109 220 -109
392 0 179 47 320 140 422 96 105 201 148 366 148 159 1 273 -48 377 -160 87
-94 127 -210 127 -373 l0 -78 -150 0 -150 0 0 58 c0 123 -57 226 -138 250
-117 35 -222 -14 -259 -122 -21 -62 -24 -232 -5 -288 22 -63 75 -97 273 -177
101 -40 207 -88 234 -106 96 -61 152 -149 176 -276 18 -97 15 -368 -5 -459
-49 -217 -176 -345 -379 -379 -30 -5 1049 -9 2558 -9 2216 0 2601 2 2548 13
-104 23 -178 62 -237 126 -60 64 -88 116 -111 204 -23 88 -23 1341 0 1430 23
87 72 170 132 225 194 177 512 168 686 -20 93 -100 136 -223 137 -387 l0 -83
-150 0 -150 0 0 63 c0 168 -88 271 -216 253 -64 -8 -101 -33 -127 -86 l-22
-45 0 -635 c0 -601 1 -637 19 -673 30 -61 69 -82 151 -82 129 0 186 64 193
217 l4 88 149 0 149 0 0 -79 c0 -107 -14 -173 -55 -259 -58 -124 -175 -221
-306 -256 -48 -13 63 -15 1011 -14 586 0 1047 4 1025 8 -115 23 -227 89 -293
173 -77 96 -112 203 -112 339 l0 88 150 0 150 0 0 -69 c0 -78 12 -122 48 -170
67 -90 252 -96 328 -10 40 44 49 94 49 259 -1 235 -5 240 -270 350 -92 38
-188 82 -213 96 -156 91 -223 236 -223 479 -1 139 21 240 72 336 166 310 643
332 849 38 63 -90 82 -154 88 -291 l4 -118 -151 0 -151 0 0 50 c0 113 -44 211
-110 245 -79 41 -183 26 -241 -35 -45 -47 -63 -110 -63 -220 1 -197 14 -211
317 -331 166 -65 228 -101 281 -159 84 -93 109 -191 110 -425 0 -191 -14 -276
-63 -381 -57 -121 -169 -210 -304 -239 -53 -11 345 -14 2666 -14 l2727 -1 0
7000 0 7000 -10965 0 -10965 0 0 -7000z m12930 5298 c0 -188 3 -338 7 -335 3
4 15 -1 26 -10 11 -10 17 -12 13 -5 -5 8 1 12 21 12 255 1 1397 -1 1398 -3 1
-1 5 -882 9 -1958 l7 -1956 -1193 -688 c-656 -379 -1429 -826 -1718 -993 -289
-168 -529 -304 -535 -304 -11 0 -27 9 -1380 790 -500 289 -1166 673 -1480 854
-313 181 -574 333 -578 337 -5 5 -5 889 -1 1965 l7 1956 728 0 c579 0 727 -3
723 -12 -4 -12 -607 -368 -648 -384 -15 -6 -16 -134 -16 -1534 l0 -1527 333
-192 c182 -106 355 -206 382 -223 28 -17 352 -204 720 -416 1022 -587 1205
-692 1210 -692 3 0 468 267 1033 593 565 326 1159 669 1320 762 l292 168 -2
1526 -3 1525 -330 193 c-181 106 -333 193 -337 193 -5 0 -8 -180 -8 -400 l0
-400 -1218 0 -1219 0 -6 98 c-12 197 -62 383 -151 567 -215 441 -649 754
-1136 819 -93 12 122 14 1813 15 l1917 1 0 -342z m-980 -2363 l0 -745 -730 0
-730 0 0 745 0 745 730 0 730 0 0 -745z m-6630 -8870 l0 -1045 -150 0 -150 0
0 1045 0 1045 150 0 150 0 0 -1045z m2330 905 l0 -140 -175 0 -175 0 0 -905 0
-905 -150 0 -150 0 0 905 0 905 -170 0 -170 0 0 140 0 140 495 0 495 0 0 -140z
m2760 0 l0 -140 -295 0 -295 0 0 -310 0 -310 260 0 260 0 0 -140 0 -140 -260
0 -260 0 0 -305 0 -305 295 0 295 0 0 -150 0 -150 -445 0 -445 0 0 1045 0
1045 445 0 445 0 0 -140z m825 125 c190 -40 302 -150 357 -353 29 -105 31
-355 5 -452 -37 -135 -96 -224 -194 -291 l-42 -29 160 -471 c87 -259 159 -473
159 -475 0 -2 -71 -3 -157 -2 l-157 3 -103 330 c-57 182 -119 381 -139 443
l-35 112 -89 0 -90 0 0 -445 0 -445 -150 0 -150 0 0 1045 0 1045 278 0 c205 0
295 -4 347 -15z m893 -312 c140 -860 185 -1133 189 -1129 2 2 57 329 123 726
66 397 121 724 123 726 2 3 74 3 159 2 l154 -3 -207 -1010 c-114 -556 -210
-1025 -214 -1042 l-6 -33 -133 0 -132 0 -208 1022 c-114 563 -210 1033 -213
1046 l-5 22 159 0 158 0 53 -327z m1242 -718 l0 -1045 -150 0 -150 0 0 1045 0
1045 150 0 150 0 0 -1045z m2370 905 l0 -140 -295 0 -295 0 0 -310 0 -310 260
0 260 0 0 -140 0 -140 -260 0 -260 0 0 -305 0 -305 295 0 295 0 0 -150 0 -150
-445 0 -445 0 0 1045 0 1045 445 0 445 0 0 -140z"/>
<path d="M10910 1500 l0 -332 123 4 c225 8 273 56 284 283 10 202 -22 301
-110 346 -35 18 -64 23 -169 27 l-128 5 0 -333z"/>
</g>
</svg>
