<?xml version="1.0" standalone="no"?>
<!DOCTYPE svg PUBLIC "-//W3C//DTD SVG 20010904//EN"
 "http://www.w3.org/TR/2001/REC-SVG-20010904/DTD/svg10.dtd">
<svg version="1.0" xmlns="http://www.w3.org/2000/svg"
 width="2193.000000pt" height="1400.000000pt" viewBox="0 0 2193.000000 1400.000000"
 preserveAspectRatio="xMidYMid meet">
<metadata>
Created by potrace 1.16, written by Peter Selinger 2001-2019
</metadata>
<g transform="translate(0.000000,1400.000000) scale(0.100000,-0.100000)"
fill="#000000" stroke="none">
<path d="M9137 12629 c732 -70 1304 -660 1350 -1391 l6 -98 1219 0 1218 0 0
401 c0 321 3 400 13 396 11 -4 503 -289 625 -361 l42 -26 0 -1518 c0 -1434 -1
-1520 -17 -1534 -10 -8 -290 -171 -623 -363 -619 -356 -1963 -1131 -1990
-1147 -11 -7 -79 28 -250 126 l-235 136 -5 628 c-5 589 -6 619 -18 502 -28
-264 -33 -356 -39 -712 -4 -278 -9 -368 -18 -368 -11 0 -1349 767 -1450 831
-22 14 -168 99 -325 189 -157 90 -293 170 -302 178 -17 14 -18 100 -18 1537 0
1404 1 1523 16 1529 16 6 230 130 527 304 123 72 127 76 127 108 l0 34 -667 1
c-368 1 -671 1 -676 0 -4 -1 -31 -2 -61 -2 l-54 -2 -6 -1151 c-4 -633 -6
-1526 -4 -1985 l3 -835 1305 -753 c1871 -1081 2124 -1226 2135 -1226 6 0 332
186 725 413 393 227 1077 622 1520 878 443 256 894 517 1003 579 l197 115 0
1136 c0 625 -3 1519 -7 1985 l-6 848 -24 -6 c-15 -3 -22 -2 -19 4 4 6 -4 7
-23 1 -16 -4 -31 -6 -34 -4 -2 3 -311 4 -686 4 l-681 0 0 315 0 315 -1937 -1
c-1066 -1 -1901 -5 -1856 -10z"/>
<path d="M10490 9935 l0 -745 730 0 730 0 0 745 0 745 -730 0 -730 0 0 -745z"/>
<path d="M5980 2119 c-81 -14 -188 -70 -249 -130 -66 -67 -118 -170 -131 -264
-13 -95 -13 -1206 0 -1315 26 -212 152 -352 355 -395 180 -38 331 2 457 122
107 103 148 204 148 368 l0 105 -150 0 -150 0 0 -85 c0 -66 -5 -95 -20 -124
-36 -72 -105 -107 -192 -99 -63 6 -96 31 -128 94 l-25 49 0 610 c0 565 1 614
18 662 21 59 51 88 110 104 60 16 121 3 164 -34 54 -47 73 -97 73 -194 l0 -83
150 0 150 0 0 103 c0 154 -38 266 -120 360 -104 118 -287 176 -460 146z"/>
<path d="M8705 2119 c-211 -35 -354 -178 -400 -400 -32 -152 -13 -363 45 -483
52 -110 129 -165 365 -261 179 -73 207 -88 238 -124 34 -40 47 -109 47 -241 0
-145 -13 -202 -57 -251 -39 -43 -82 -59 -157 -59 -74 0 -123 19 -160 62 -41
47 -56 97 -56 182 l0 66 -150 0 -150 0 0 -67 c0 -256 121 -437 341 -514 86
-30 254 -32 347 -4 168 49 275 172 319 367 24 102 23 385 -1 482 -30 124 -92
209 -197 268 -24 14 -122 56 -217 94 -254 100 -277 125 -277 309 0 157 35 231
127 269 78 33 178 10 231 -53 34 -41 57 -118 57 -193 l0 -58 150 0 150 0 0 93
c0 168 -38 267 -144 373 -125 124 -277 173 -451 143z"/>
<path d="M13996 2114 c-167 -40 -307 -180 -345 -345 -14 -59 -15 -1337 -1
-1410 23 -124 114 -248 222 -302 30 -15 85 -34 123 -42 180 -38 332 0 456 113
109 100 157 222 158 395 l1 97 -119 0 c-65 0 -133 -3 -150 -6 -31 -6 -31 -7
-31 -68 0 -81 -23 -155 -57 -188 -89 -85 -233 -73 -285 24 l-23 43 0 635 c0
571 2 639 17 670 33 70 93 101 178 94 100 -9 157 -88 167 -229 l6 -85 148 0
149 0 0 93 c0 162 -49 294 -145 389 -119 118 -296 164 -469 122z"/>
<path d="M16285 2119 c-133 -27 -266 -130 -323 -251 -51 -107 -66 -178 -65
-323 0 -240 60 -375 209 -471 28 -18 122 -62 209 -98 207 -86 242 -107 265
-160 38 -88 33 -359 -8 -429 -38 -65 -121 -96 -223 -82 -106 15 -160 87 -167
222 l-5 83 -148 0 -149 0 0 -92 c0 -157 44 -272 139 -367 101 -101 227 -151
381 -151 257 0 425 131 487 377 24 97 25 412 1 500 -25 92 -60 152 -116 205
-59 56 -119 86 -314 162 -243 95 -263 120 -256 323 3 97 8 125 26 160 40 76
119 110 215 92 100 -18 150 -90 163 -231 l7 -78 149 0 150 0 -4 123 c-4 94
-10 135 -27 180 -49 125 -165 237 -298 287 -68 25 -218 35 -298 19z"/>
<path d="M5020 1065 l0 -1045 150 0 150 0 0 1045 0 1045 -150 0 -150 0 0
-1045z"/>
<path d="M6660 1970 l0 -140 170 0 170 0 0 -905 0 -905 150 0 150 0 0 905 0
905 175 0 175 0 0 140 0 140 -495 0 -495 0 0 -140z"/>
<path d="M9520 1065 l0 -1045 450 0 450 0 0 150 0 150 -300 0 -300 0 0 305 0
305 260 0 260 0 0 140 0 140 -260 0 -260 0 0 310 0 310 300 0 300 0 0 140 0
140 -450 0 -450 0 0 -1045z"/>
<path d="M10610 1065 l0 -1045 150 0 150 0 0 445 0 445 90 0 89 0 37 -117 c20
-65 82 -264 138 -443 l101 -325 158 -3 c86 -1 157 0 157 4 0 7 -272 814 -304
901 l-15 42 57 41 c91 64 143 142 178 270 26 91 26 357 1 450 -44 163 -120
266 -241 325 -98 48 -160 55 -473 55 l-273 0 0 -1045z m596 734 c41 -20 54
-34 79 -84 29 -59 30 -63 30 -215 0 -152 -1 -156 -30 -215 -24 -47 -39 -64
-74 -82 -39 -20 -58 -23 -173 -23 l-128 0 0 326 0 326 124 -4 c106 -3 130 -7
172 -29z"/>
<path d="M11760 2103 c0 -5 95 -471 210 -1037 116 -567 210 -1033 210 -1038 0
-4 60 -8 134 -8 l134 0 11 48 c12 59 215 1043 327 1592 47 228 87 423 90 433
5 16 -7 17 -155 17 l-159 0 -6 -27 c-3 -16 -58 -343 -121 -727 -98 -595 -126
-754 -125 -700 0 5 -52 334 -117 732 l-117 722 -158 0 c-87 0 -158 -3 -158 -7z"/>
<path d="M13070 1065 l0 -1045 150 0 150 0 0 1045 0 1045 -150 0 -150 0 0
-1045z"/>
<path d="M14850 1065 l0 -1045 450 0 450 0 0 150 0 150 -300 0 -300 0 0 305 0
305 260 0 260 0 0 145 0 145 -260 0 -260 0 0 305 0 305 300 0 300 0 0 140 0
140 -450 0 -450 0 0 -1045z"/>
</g>
</svg>
